<svg xmlns="http://www.w3.org/2000/svg" width="150" height="150" viewBox="0 0 150 150"><g fill-rule="evenodd" clip-rule="evenodd"><path fill="#95647D" d="M21.37 52.509v19.138l53.658 25.802V76.67L50.271 62.301z"/><path fill="#734D60" d="M128.686 52.509v19.138L75.028 97.449V76.67L98.313 64.1z"/><path fill="#F4CADF" d="M115.064 121.237l9.356 19.627h-9.356l-.984-8.533zM106.556 121.237l-9.285 19.627h9.159l1.018-7.354z"/><path fill="#9076A0" d="M75.028 9.136L73.26 26.019l1.768 16.883 31.402 1.746 43.595-1.746z"/><path fill="#A587B8" d="M75.028 42.902L73.26 57.911l1.768 18.759 74.997-33.768z"/><path fill="#795D87" d="M.03 42.902l46.409-1.938 28.589 1.938V76.67z"/><path fill="#B7A2CC" d="M75.028 42.902H.03L75.028 9.136z"/><path fill="#F4CADF" d="M75.028 38.339l40.036 20.303-8.126 3.659-31.91-16.31z"/><path fill="#D0A1B8" d="M115.064 58.642v82.222h-8.634l.508-78.563z"/><path fill="#F4CADF" d="M115.064 121.237l-4.317 19.627-4.191-19.627z"/></g></svg>