<svg id="f70087df-afd4-4a90-a183-2f3368e0bcee" data-name="rocket" xmlns="http://www.w3.org/2000/svg" viewBox="0 0 130.93 130.93"><title>explorers-menu</title><polygon points="88.94 1.91 93.77 31.4 126.86 0.12 88.94 1.91" fill="#fae887"/><polygon points="130.96 40.21 93.77 31.4 126.86 0.12 130.96 40.21" fill="#f4d95b"/><polygon points="63.73 33.1 88.94 1.91 93.77 31.4 70.72 54.53 63.73 33.1" fill="#ccaf2c"/><polygon points="98.11 62.7 70.72 54.53 93.77 31.4 130.96 40.21 98.11 62.7" fill="#b48e2e"/><polygon points="43.84 30.45 66.52 29.65 70.72 54.53 53.28 69.71 44.52 54.45 43.84 30.45" fill="#fae887"/><polygon points="98.11 62.7 98.22 82.32 75.76 80.84 53.28 69.71 70.72 54.53 98.11 62.7" fill="#f4d95b"/><polygon points="53.28 69.71 21.41 104.37 16.53 73.48 28.5 54.63 32.76 54.84 34.48 45.2 43.84 30.45 44.93 60.46 53.28 69.71" fill="#ccaf2c"/><polygon points="53.28 69.71 47.73 75.74 37.75 40.04 37.75 40.04 43.84 30.45 53.28 69.71" fill="#9d792c"/><polygon points="98.22 82.32 82.24 92.73 71.28 93.98 71.78 99.52 60.79 114.54 52.04 112.39 21.41 104.37 53.28 69.71 73.28 82.28 98.22 82.32" fill="#b48e2e"/><polygon points="98.22 82.32 89.85 87.77 47.73 75.74 47.73 75.74 53.28 69.71 98.22 82.32" fill="#846628"/><polygon points="28.5 54.63 0.09 66.22 16.53 73.48 28.5 54.63" fill="#9d792c"/><polygon points="71.86 99.49 56.29 130.49 52.04 112.39 71.86 99.49" fill="#846628"/><polygon points="37.34 87.04 19.2 90.37 5.69 113.55 25.66 106.18 37.34 87.04" fill="#9d792c"/><polygon points="30.85 106.84 37.34 87.04 5.69 113.55 30.85 106.84" fill="#846628"/><polygon points="66.52 29.65 72.83 21.85 80.86 44.35 83.3 54.04 70.72 54.53 66.52 29.65" fill="#9d792c"/><polygon points="98.11 62.7 70.72 54.53 80.86 44.35 109.66 54.79 98.11 62.7" fill="#846628"/><polygon points="45 78.71 37.34 87.04 28.5 54.63 34.48 45.2 45 78.71" fill="#f4d75d"/><polygon points="33.92 74.5 30.76 62.9 34.18 59.03 36.98 63.01 37.48 70.55 33.92 74.5" fill="#b58b00"/><polygon points="77.05 96.11 71.78 99.52 62.68 96.17 59.4 91.32 50.8 91.89 37.34 87.04 41.17 82.87 59.76 86.72 77.05 96.11" fill="#9e7700"/><polygon points="62.68 96.17 50.8 91.89 57.9 83.56 70.19 88.19 62.68 96.17" fill="#e5c828"/><polygon points="45 78.71 41.17 82.87 31.36 50.13 34.48 45.2 45 78.71" fill="#b58b00"/><polygon points="37.48 70.55 34.07 59.17 37.61 55.17 41.16 66.46 37.48 70.55" fill="#f4d75d"/><polygon points="82.24 92.73 77.05 96.11 77.05 96.11 41.17 82.87 45 78.71 82.24 92.73" fill="#e5c828"/><polygon points="66.43 92.2 54.35 87.73 57.9 83.56 70.19 88.19 66.43 92.2" fill="#9e7700"/></svg>